<svg id="fi_3281344" enable-background="new 0 0 512 512" height="512" viewBox="0 0 512 512" width="512" xmlns="http://www.w3.org/2000/svg"><g><g><path d="m498.818 224.849-43.277-6.505c-5.264-28.063-16.295-54.089-31.825-76.802l26.01-35.213c4.553-6.164 3.913-14.73-1.506-20.148l-22.4-22.4c-5.418-5.418-13.985-6.059-20.148-1.506l-35.213 26.01c-22.712-15.53-48.739-26.562-76.802-31.825l-6.505-43.277c-1.14-7.578-7.65-13.183-15.313-13.183h-31.679c-7.663 0-14.173 5.605-15.312 13.182l-6.506 43.277c-28.063 5.264-54.089 16.295-76.802 31.825l-35.212-26.01c-6.164-4.553-14.73-3.912-20.148 1.506l-22.4 22.4c-5.418 5.418-6.058 13.985-1.506 20.148l26.01 35.213c-15.53 22.712-26.562 48.738-31.825 76.802l-43.277 6.505c-7.578 1.14-13.182 7.65-13.182 15.313v31.678c0 7.663 5.604 14.173 13.182 15.312l43.277 6.506c5.264 28.063 16.295 54.089 31.825 76.802l-26.01 35.212c-4.553 6.164-3.912 14.73 1.506 20.149l22.4 22.4c5.418 5.418 13.985 6.059 20.148 1.506l49.189-36.559 12.149-5.411-3.074-8.239-.941-10.888c-33.357-28.393-62.456-66.81-62.456-114.047 0-3.131.104-6.237.287-9.322v.002c-.181-3.065-.287-6.15-.287-9.26 0-85.496 69.308-154.804 154.804-154.804s154.805 69.306 154.805 154.802c0 3.11-.107 6.195-.287 9.26.183 3.085.287 6.19.287 9.321 0 45.662-28.781 85.631-60.229 113.964l-3.169 10.972-4.142 6.593 13.217 7.057 49.189 36.559c6.164 4.553 14.73 3.913 20.148-1.506l22.4-22.4c5.419-5.419 6.059-13.985 1.506-20.149l-26.01-35.212c15.53-22.712 26.562-48.739 31.825-76.802l43.277-6.506c7.577-1.139 13.182-7.649 13.182-15.312v-31.678c.002-7.663-5.603-14.173-13.18-15.312z" fill="#ff4755"></path><g><g fill="#fc2b3a"><path d="m410.804 274.581c0-3.13-.104-6.236-.287-9.321-3.078 52.154-31.964 97.366-74.08 123.029l-3.534 5.081 14.504 6.146c38.434-28.167 63.397-73.632 63.397-124.935z"></path><path d="m101.483 265.259c-.183 3.085-.287 6.191-.287 9.322 0 51.303 24.963 96.768 63.397 124.936l14.228-5.865-3.258-5.362c-42.116-25.664-71.002-70.876-74.08-123.031z"></path></g></g><path d="m165.478 290.314s-17.693-30.898-10.498-70.604c10.1-55.739 99.071-110.265 139.584-47.43 0 0 88.504-14.234 53.736 121.088z" fill="#365e7d"></path><path d="m281.274 367.991h-50.548c-47.046 0-85.185 38.138-85.185 85.185v40.244l110.459 9 110.459-9v-40.244c0-47.047-38.139-85.185-85.185-85.185z" fill="#8bcaff"></path><path d="m150.703 512h30.734l7.745-9 7.738 9h118.16l7.738-9 7.745 9h30.734c2.851 0 5.161-2.311 5.161-5.161v-13.419h-220.917v13.419c0 2.85 2.311 5.161 5.162 5.161z" fill="#6cc4ff"></path><path d="m184.479 316.838 2.384-9.122 9-10.478-9-16.803c-.784-.081-1.579-.122-2.384-.122-9.426 0-17.525 5.659-21.098 13.763-.001 16.534 11.672 22.762 21.098 22.762z" fill="#f4b184"></path><path d="m186.862 307.716c-.784.081-1.579.122-2.384.122-9.426 0-17.525-5.66-21.098-13.763-1.254 2.843-1.955 5.984-1.955 9.29 0 12.732 10.321 23.053 23.053 23.053 1.611 0 3.182-.167 4.7-.481l3.081-6.545z" fill="#eaa678"></path><path d="m252.332 475.648c2.02 2.04 5.316 2.04 7.336 0l18.091-27.277-8.946-49.034-12.815-9-12.815 9-8.946 49.033z" fill="#ff4755"></path><path d="m268.813 399.337h-25.63l-12.173-31.346h49.976z" fill="#ea2f4a"></path><path d="m252.332 466.648-18.095-18.278-2.38 13.043c-.303 1.658.224 3.36 1.41 4.558l19.066 19.258c2.02 2.04 5.316 2.04 7.336 0l19.062-19.258c1.186-1.198 1.712-2.899 1.409-4.557l-2.38-13.043-18.091 18.277c-2.021 2.04-5.317 2.04-7.337 0z" fill="#fc2b3a"></path><path d="m327.522 316.838-2.384-9.122-9-10.478 9-16.803c.784-.081 1.579-.122 2.384-.122 9.426 0 17.525 5.659 21.098 13.763 0 16.534-11.673 22.762-21.098 22.762z" fill="#f4b184"></path><path d="m325.138 307.716c.784.081 1.579.122 2.384.122 9.426 0 17.525-5.66 21.098-13.763 1.254 2.843 1.955 5.984 1.955 9.29 0 12.732-10.321 23.053-23.053 23.053-1.611 0-3.182-.167-4.7-.481l-3.08-6.545z" fill="#eaa678"></path><path d="m256 367.701c38.184 0 69.138-21.902 69.138-78.137v-30.711c0-1.894-1.03-3.635-2.697-4.534-6.424-3.463-22.943-14.269-34.306-38.548-1.544-3.298-5.91-3.99-8.419-1.35-25.989 27.333-73.922 36.989-88.521 39.37-2.499.407-4.332 2.561-4.332 5.094v30.678c-.001 53.615 30.954 78.138 69.137 78.138z" fill="#ffc89f"></path><path d="m256 358.701c-38.184 0-69.138-30.954-69.138-69.137v18.581c0 38.184 30.954 69.137 69.138 69.137s69.138-30.954 69.138-69.137v-18.581c0 38.183-30.954 69.137-69.138 69.137z" fill="#f7bc94"></path><g fill="#2eabff"><path d="m196.924 463.711v29.708l-7.742 9-7.742-9v-29.708c0-4.284 3.458-7.742 7.742-7.742 4.274 0 7.742 3.458 7.742 7.742z"></path><path d="m330.56 463.711v29.708l-7.738 9-7.745-9v-29.708c0-4.284 3.469-7.742 7.742-7.742 4.283 0 7.741 3.458 7.741 7.742z"></path></g><g fill="#109be8"><path d="m181.437 493.419h15.484v18.581h-15.484z"></path><path d="m315.08 493.419h15.484v18.581h-15.484z"></path></g></g><g><path d="m222.432 310.225c4.285 0 7.757-3.473 7.757-7.757v-15.53c0-4.284-3.473-7.757-7.757-7.757-4.285 0-7.757 3.473-7.757 7.757v15.53c0 4.284 3.473 7.757 7.757 7.757z" fill="#365e7d"></path><path d="m289.567 310.225c4.285 0 7.757-3.473 7.757-7.757v-15.53c0-4.284-3.473-7.757-7.757-7.757-4.285 0-7.757 3.473-7.757 7.757v15.53c0 4.284 3.472 7.757 7.757 7.757z" fill="#365e7d"></path><path d="m256 345.798c13.449 0 20.363-8.081 22.33-12.856.533-1.081.854-2.267.854-3.544 0-4.292-3.479-7.771-7.77-7.771-3.37 0-6.237 2.147-7.314 5.147-.302.586-2.11 3.51-8.1 3.51-5.989 0-7.797-2.924-8.099-3.51-1.077-3-3.944-5.147-7.314-5.147-4.292 0-7.77 3.479-7.77 7.771 0 1.277.321 2.463.854 3.544 1.966 4.775 8.88 12.856 22.329 12.856z" fill="#ff4755"></path></g></g></svg>
