<svg enable-background="new 0 0 512 512" height="512" viewBox="0 0 512 512" width="512" xmlns="http://www.w3.org/2000/svg" id="fi_3032932"><g id="_x38_68-Bubble_x2C__Chat_x2C__Message"><g><circle cx="326.93" cy="450.5" fill="#ffd400" r="25"></circle><path d="m81.93 95.5c11.05 0 20 8.95 20 20s-8.95 20-20 20-20-8.95-20-20 8.95-20 20-20z" fill="#ffd400"></path><path d="m471.93 215.5c0 55.18-27.94 103.84-70.44 132.6l20.44 57.4-61.54-37.48c-39.479 12.532-83.494 9.468-121.71-10.239 2.31-8.66 3.54-17.75 3.54-27.141 0-52.89-39.061-96.66-89.9-104.04-6.386-93.743 67.953-171.1 159.61-171.1 88.37 0 160 71.63 160 160z" fill="#07cc66"></path><path d="m451.93 45.5c5.52 0 10 4.48 10 10s-4.48 10-10 10-10-4.48-10-10 4.48-10 10-10z" fill="#94d4ff"></path><path d="m411.93 185.5c5.52 0 10 4.48 10 10s-4.48 10-10 10-10-4.48-10-10 4.48-10 10-10z" fill="#fff"></path><g fill="#94d4ff"><path d="m401.93 425.5c5.52 0 10 4.48 10 10s-4.48 10-10 10-10-4.48-10-10 4.48-10 10-10z"></path><path d="m251.93 445.5c5.52 0 10 4.48 10 10s-4.48 10-10 10c-5.521 0-10-4.48-10-10s4.479-10 10-10z"></path><path d="m161.93 45.5c5.52 0 10 4.48 10 10s-4.48 10-10 10c-5.521 0-10-4.48-10-10s4.479-10 10-10z"></path><path d="m71.93 175.5c5.52 0 10 4.48 10 10s-4.48 10-10 10c-5.521 0-10-4.48-10-10s4.479-10 10-10z"></path></g><path d="m321.93 175.5h-90c-5.523 0-10-4.477-10-10s4.477-10 10-10h90c5.522 0 10 4.477 10 10s-4.478 10-10 10z" fill="#fff"></path><path d="m381.93 205.5h-150c-5.523 0-10-4.477-10-10s4.477-10 10-10h150c5.522 0 10 4.477 10 10s-4.478 10-10 10z" fill="#fff"></path><path d="m431.93 235.5h-200c-5.523 0-10-4.477-10-10s4.477-10 10-10h200c5.522 0 10 4.477 10 10s-4.478 10-10 10z" fill="#fff"></path><path d="m138.069 434.79c-11.1 0-21.8-1.73-31.85-4.92l-43.289 24.63 16.29-37.72c-27.931-18.9-46.29-50.87-46.29-87.141 0-58.069 47.069-105.14 105.14-105.14 57.984 0 105.15 46.988 105.15 105.14 0 57.971-46.977 105.151-105.151 105.151z" fill="#5cbeff"></path><path d="m192.93 364.5h-110c-5.523 0-10-4.478-10-10s4.477-10 10-10h110c5.522 0 10 4.478 10 10s-4.478 10-10 10z" fill="#fff"></path><path d="m192.93 334.5h-110c-5.523 0-10-4.478-10-10s4.477-10 10-10h110c5.522 0 10 4.478 10 10s-4.478 10-10 10z" fill="#fff"></path><path d="m192.93 304.5h-110c-5.523 0-10-4.478-10-10s4.477-10 10-10h110c5.522 0 10 4.478 10 10s-4.478 10-10 10z" fill="#fff"></path></g></g></svg>
