<svg clip-rule="evenodd" fill-rule="evenodd" stroke-linejoin="round" stroke-miterlimit="2" viewBox="0 0 64 64" height="30pt" width="30pt" xmlns="http://www.w3.org/2000/svg" xmlns:serif="http://www.serif.com/" id="fi_15059833"><g transform="translate(-640 -320)"><g id="home-dashboard-start-interface" transform="translate(640 320)"><path d="m0 0h64v64h-64z" fill="none"></path><g transform="translate(-640 -320)"><g><path d="m666 379c0 .552-.448 1-1 1-2.711 0-10 0-10 0-1.061 0-2.078-.421-2.828-1.172-.751-.75-1.172-1.767-1.172-2.828v-30l21-20 21 20v30c0 1.061-.421 2.078-1.172 2.828-.75.751-1.767 1.172-2.828 1.172 0 0-7.289 0-10 0-.552 0-1-.448-1-1 0-2.882 0-11 0-11 0-3.311-2.689-6-6-6s-6 2.689-6 6z" fill="#57b7eb"></path></g><g><path d="m672.007 324.001c.766.001 1.531.294 2.114.878 0 0 24.122 24.121 24.122 24.121 1.17 1.171 1.17 3.072 0 4.243-1.171 1.17-3.072 1.17-4.243 0l-22-22-22 22c-1.171 1.17-3.072 1.17-4.243 0-1.17-1.171-1.17-3.072 0-4.243l24.122-24.121c.558-.551 1.301-.864 2.085-.878h.036z" fill="#4891d3"></path></g></g></g></g></svg>   
