<svg version="1.1" id="fi_1021264" xmlns="http://www.w3.org/2000/svg" xmlns:xlink="http://www.w3.org/1999/xlink" x="0px" y="0px" viewBox="0 0 512 512" style="enable-background:new 0 0 512 512;" xml:space="preserve">
                        <path style="fill:#E94141;" d="M140.522,388.83l61.175-61.175c6.175-6.175,6.175-16.188,0-22.363l0,0
                        c-6.175-6.175-16.188-6.175-22.363,0l-61.175,61.175l-61.175-61.175c-6.175-6.175-16.188-6.175-22.363,0l0,0
                        c-6.175,6.175-6.175,16.188,0,22.363l61.175,61.175l-61.175,61.175c-6.175,6.175-6.175,16.188,0,22.363
                        c6.175,6.175,16.188,6.175,22.363,0l61.175-61.175l61.175,61.175c6.175,6.175,16.188,6.175,22.363,0s6.175-16.188,0-22.363
                        L140.522,388.83z"></path>
                        <path style="fill:#0086F4;" d="M393.839,300.66c-48.692,0-88.171,39.479-88.171,88.171s39.479,88.171,88.171,88.171
                        s88.171-39.479,88.171-88.171S442.531,300.66,393.839,300.66z M393.839,449.05c-33.255,0-60.22-26.965-60.22-60.22
                        s26.965-60.22,60.22-60.22s60.22,26.965,60.22,60.22S427.094,449.05,393.839,449.05z"></path>
                        <path style="fill:#E94141;" d="M371.478,123.17l-61.175-61.175c-6.175-6.175-6.175-16.188,0-22.363l0,0
                        c6.175-6.175,16.188-6.175,22.363,0l61.175,61.175l61.175-61.175c6.175-6.175,16.188-6.175,22.363,0l0,0
                        c6.175,6.175,6.175,16.188,0,22.363l-61.175,61.175l61.175,61.175c6.175,6.175,6.175,16.188,0,22.363s-16.188,6.175-22.363,0
                        l-61.175-61.175l-61.175,61.175c-6.175,6.175-16.188,6.175-22.363,0c-6.175-6.175-6.175-16.188,0-22.363L371.478,123.17z"></path>
                        <path style="fill:#0086F4;" d="M29.99,123.17c0,48.692,39.479,88.171,88.171,88.171s88.171-39.479,88.171-88.171
                        s-39.479-88.171-88.171-88.171C69.469,34.999,29.99,74.478,29.99,123.17z M57.941,123.17c0-33.255,26.965-60.22,60.22-60.22
                        s60.22,26.965,60.22,60.22s-26.965,60.22-60.22,60.22C84.906,183.389,57.941,156.425,57.941,123.17z"></path>
                        <path style="fill:#629ACC;" d="M504.5,248.5h-241V7.5c0-4.143-3.357-7.5-7.5-7.5c-4.142,0-7.5,3.357-7.5,7.5v241H7.5
                        c-4.142,0-7.5,3.357-7.5,7.5s3.358,7.5,7.5,7.5h241v241c0,4.143,3.358,7.5,7.5,7.5c4.143,0,7.5-3.357,7.5-7.5v-241h241
                        c4.143,0,7.5-3.357,7.5-7.5S508.643,248.5,504.5,248.5z"></path>
                        <path style="fill:#E94141;" d="M285.308,292.644c-4.143,0-7.5-3.357-7.5-7.5v-0.938c0-4.143,3.357-7.5,7.5-7.5s7.5,3.357,7.5,7.5
                        v0.938C292.808,289.286,289.45,292.644,285.308,292.644z"></path>
                        <g>
                        <path style="fill:#0086F4;" d="M226.692,292.644c-4.142,0-7.5-3.357-7.5-7.5v-0.938c0-4.143,3.358-7.5,7.5-7.5s7.5,3.357,7.5,7.5
                        v0.938C234.192,289.286,230.834,292.644,226.692,292.644z"></path>
                        <path style="fill:#0086F4;" d="M285.308,235.295c-4.143,0-7.5-3.357-7.5-7.5v-0.938c0-4.143,3.357-7.5,7.5-7.5s7.5,3.357,7.5,7.5
                        v0.938C292.808,231.938,289.45,235.295,285.308,235.295z"></path>
                        </g>
                        <path style="fill:#E94141;" d="M226.692,235.295c-4.142,0-7.5-3.357-7.5-7.5v-0.938c0-4.143,3.358-7.5,7.5-7.5s7.5,3.357,7.5,7.5
                        v0.938C234.192,231.938,230.834,235.295,226.692,235.295z"></path><g></g><g></g><g></g><g></g><g></g><g></g><g></g><g></g><g></g><g></g><g></g><g></g><g></g><g></g><g></g>
                    </svg>
                    