<svg id="fi_8273856" enable-background="new 0 0 512 512" height="512" viewBox="0 0 512 512" width="512" xmlns="http://www.w3.org/2000/svg"><g><g><path d="m390.877 492.146c-5.052 0-9.787-.991-14.068-2.761-18.431-7.621-28.453-29.692-19.173-49.364 3.024-6.411 6.605-12.53 10.249-18.164 13.052-20.177 38.777-48.869 48.017-56.905 8.699-7.566 41.615-37.367 41.615-37.367-17.261-4.178-31.225-2.769-49.135 1.875-13.543 3.511-27.608 4.667-39.873-.271-4.519-1.819-9.443 1.52-9.428 6.396.008 2.656-2.168 4.802-4.824 4.802h-17.307c-3.787 0-6.857-3.07-6.857-6.857v-54.89c0-3.787 3.07-6.857 6.857-6.857h15.247c3.798 0 6.872 3.087 6.857 6.884l-.018 4.544c15.583 10.313 37.088 9.275 54.317 2.039 14.425-6.059 31.542-7.413 46.251-1.644 5.387 2.113 11.458-.641 13.498-6.055l.057-.152c1.273-3.379 4.506-5.615 8.116-5.615h21.985c4.694 0 8.5 3.736 8.671 8.427 1.288 35.409-16.51 70.25-39.43 96.179-19.918 22.532-37.167 47.609-43.99 77.177-.572 2.481-1.018 4.88-1.358 7.185-2.654 18.018-18.061 31.394-36.276 31.394z" fill="#ff4242"></path><path d="m60.783 492.146c-5.004 0-9.697-.972-13.947-2.711-18.508-7.575-28.594-29.699-19.294-49.414 3.024-6.411 6.605-12.53 10.249-18.164 13.052-20.177 38.778-48.869 48.017-56.905 8.699-7.566 41.615-37.367 41.615-37.367-17.261-4.178-31.225-2.769-49.135 1.875-13.543 3.511-27.608 4.667-39.873-.271-4.519-1.819-9.442 1.52-9.428 6.396.008 2.656-2.168 4.802-4.824 4.802h-17.306c-3.787 0-6.857-3.07-6.857-6.857v-54.89c0-3.787 3.07-6.857 6.857-6.857h15.247c3.798 0 6.872 3.087 6.857 6.884l-.018 4.544c15.583 10.313 37.088 9.275 54.317 2.039 14.425-6.059 31.542-7.413 46.251-1.644 5.387 2.113 11.458-.641 13.498-6.055l.057-.152c1.273-3.379 4.506-5.615 8.116-5.615h21.985c4.694 0 8.5 3.736 8.671 8.427 1.288 35.409-16.51 70.25-39.43 96.179-19.918 22.532-37.167 47.609-43.99 77.177-.572 2.481-1.018 4.88-1.358 7.185-2.655 18.018-18.062 31.394-36.277 31.394z" fill="#ff4242"></path><path d="m170.54 273.291v45.71h-27.39c-5.07 0-9.18-4.11-9.18-9.18v-25.53c3.94-.27 7.56-2.8 9.04-6.74l.06-.15c.64-1.71 1.79-3.13 3.23-4.11z" fill="#eb2828"></path><g fill="#eb2828"><path d="m511.935 280.207c-.175-4.687-3.978-8.419-8.676-8.419h-21.988c-.987 0-1.943.164-2.847.483 3.3 1.151 5.685 4.245 5.818 7.936 1.285 35.412-16.509 70.249-39.432 96.184-19.921 22.532-37.17 47.604-43.985 77.177-.576 2.477-1.028 4.872-1.367 7.185-1.936 13.161-10.701 23.842-22.376 28.638-.043.018-.085.035-.128.053 4.235 1.727 8.936 2.703 13.921 2.703 18.215 0 33.624-13.374 36.276-31.393.339-2.313.792-4.708 1.357-7.185 6.825-29.574 24.074-54.645 43.996-77.177 22.922-25.936 40.715-60.773 39.431-96.185z"></path><path d="m142.412 376.391c-19.921 22.532-37.17 47.604-43.996 77.177-.576 2.477-1.018 4.872-1.357 7.185-2.652 18.02-18.061 31.393-36.276 31.393-4.986 0-9.673-.969-13.908-2.696 11.739-4.77 20.549-15.488 22.492-28.697.339-2.313.792-4.708 1.357-7.185 6.826-29.574 24.074-54.645 43.996-77.177 22.913-25.935 40.717-60.772 39.432-96.184-.134-3.69-2.518-6.784-5.818-7.936.905-.319 1.861-.483 2.847-.483h21.988c4.698 0 8.501 3.731 8.665 8.419 1.294 35.412-16.509 70.249-39.422 96.184z"></path></g><path d="m219.231 492.146c-4.648 0-9.076-.688-13.211-1.953-24.935-7.628-39.263-36.24-27.307-61.584 3.686-7.814 8.051-15.274 12.493-22.141 15.909-24.595 47.268-59.569 58.53-69.364 10.604-9.223 50.726-45.548 50.726-45.548-21.04-5.093-38.061-3.375-59.893 2.285-16.509 4.28-33.652 5.688-48.603-.33-5.508-2.217-11.51 1.852-11.492 7.796.01 3.237-2.643 5.853-5.88 5.853h-21.097c-4.616 0-8.358-3.742-8.358-8.358v-66.908c0-4.616 3.742-8.358 8.358-8.358h18.585c4.629 0 8.377 3.763 8.358 8.392l-.022 5.539c18.995 12.571 45.209 11.305 66.21 2.485 17.584-7.385 38.448-9.036 56.377-2.004 6.566 2.575 13.967-.781 16.454-7.381l.07-.186c1.552-4.118 5.492-6.845 9.893-6.845h26.798c5.722 0 10.362 4.554 10.57 10.272 1.57 43.161-20.124 85.631-48.063 117.236-24.28 27.466-45.305 58.033-53.621 94.074-.698 3.024-1.241 5.948-1.655 8.758-3.238 21.966-22.018 38.27-44.22 38.27z" fill="#ff4242"></path><path d="m318.724 351.042c-24.28 27.466-45.301 58.037-53.617 94.077-.699 3.022-1.244 5.952-1.655 8.758-3.238 21.967-22.018 38.27-44.222 38.27-4.574 0-8.941-.674-13.022-1.897 16.252-4.893 28.77-18.816 31.361-36.373.411-2.806.956-5.736 1.655-8.758 8.316-36.039 29.348-66.61 53.628-94.077 27.929-31.599 49.629-74.073 48.056-117.236-.206-5.715-4.842-10.269-10.567-10.269h25.883c5.715 0 10.362 4.554 10.567 10.269 1.572 43.163-20.128 85.637-48.067 117.236z" fill="#eb2828"></path><path d="m358.466 183.923h-204.932c-3.607 0-6.532-2.924-6.532-6.532v-20.134c0-3.607 2.924-6.532 6.532-6.532h204.931c3.607 0 6.532 2.924 6.532 6.532v20.134c.001 3.607-2.924 6.532-6.531 6.532z" fill="#ffc433"></path><path d="m364.997 157.261v20.125c0 3.615-2.925 6.54-6.53 6.54h-20.557c3.605 0 6.53-2.925 6.53-6.54v-20.125c0-3.615-2.925-6.54-6.53-6.54h20.557c3.605 0 6.53 2.925 6.53 6.54z" fill="#ffb322"></path><path d="m299.994 113.987-38.867-67.923c-2.268-3.964-7.985-3.964-10.253 0l-38.867 67.923-47.473-27.673c-4.429-2.581-9.818 1.317-8.752 6.331l12.347 58.079 87.877 5.101 87.868-5.101 12.347-58.079c1.066-5.014-4.323-8.913-8.752-6.331z" fill="#ffc433"></path><path d="m356.222 92.644-12.349 58.078h-21.587l12.071-56.77 13.111-7.642c4.429-2.575 9.815 1.318 8.754 6.334z" fill="#ffb322"></path><path d="m276.553 40.41c0 11.351-9.202 20.553-20.553 20.553-5.344 0-10.212-2.04-13.868-5.383-4.109-3.758-6.686-9.163-6.686-15.17 0-10.519 7.902-19.192 18.093-20.408.807-.096 1.628-.146 2.461-.146 11.351 0 20.553 9.202 20.553 20.554z" fill="#ffad19"></path><path d="m276.473 38.515c1.09 12.212-8.5 22.448-20.473 22.448-5.325 0-10.162-2.021-13.818-5.338 10.238-1.184 18.174-9.864 18.174-20.411 0-6.035-2.595-11.463-6.736-15.222.043-.005.087-.01.13-.015 11.322-1.256 21.711 7.193 22.723 18.538z" fill="#ffa101"></path><path d="m172.38 89.625c0 9.08-7.36 16.44-16.44 16.44-1.278 0-2.523-.146-3.717-.422-7.289-1.685-12.723-8.217-12.723-16.018 0-5.098 2.32-9.654 5.963-12.669 2.845-2.355 6.496-3.771 10.477-3.771 9.079 0 16.44 7.361 16.44 16.44z" fill="#ffad19"></path><path d="m172.38 89.626c0 9.074-7.364 16.438-16.438 16.438-1.267 0-2.5-.145-3.685-.412 3.656-3.018 5.992-7.58 5.992-12.699 0-7.807-5.452-14.356-12.754-16.024 2.843-2.328 6.482-3.74 10.447-3.74 9.074-.001 16.438 7.353 16.438 16.437z" fill="#ffa101"></path><path d="m372.259 89.625c0 9.08-7.36 16.44-16.44 16.44-6.71 0-12.481-4.02-15.036-9.783-.902-2.035-1.404-4.288-1.404-6.657 0-9.08 7.36-16.44 16.44-16.44 1.325 0 2.613.157 3.847.452 7.224 1.732 12.593 8.233 12.593 15.988z" fill="#ffad19"></path><path d="m372.258 89.626c0 9.074-7.364 16.438-16.438 16.438-6.653 0-12.374-3.953-14.969-9.628 1.256.299 2.569.472 3.918.472 9.084 0 16.438-7.364 16.438-16.438 0-2.431-.528-4.746-1.476-6.816 7.19 1.75 12.527 8.237 12.527 15.972z" fill="#ffa101"></path></g></g></svg>
