<svg id="fi_6081979" enable-background="new 0 0 512 512" height="512" viewBox="0 0 512 512" width="512" xmlns="http://www.w3.org/2000/svg"><g><g><path d="m290.342 262.247v-167.623l-145.171-83.811-145.171 83.811v167.623l145.171 83.812z" fill="#8ac9fe"></path><path d="m145.171 10.813 111.463 104.511 33.709 146.923v-167.623z" fill="#60b7ff"></path><path d="m0 262.247 145.171-251.434 145.171 251.434z" fill="#c4e2ff"></path></g><g><path d="m428.482 500.845 83.518-145.337-84.111-144.994-167.629.342-83.518 145.337 84.111 144.994z" fill="#fe76a8"></path><path d="m427.889 210.514 42.904 144.994-42.311 145.337 83.518-145.337z" fill="#fe5694"></path><path d="m176.742 356.193 251.147-145.679.593 290.331z" fill="#fea3c6"></path></g><g fill="#fff"><path d="m164.735 161.475c3.957-4.552 6.356-10.493 6.356-16.984 0-14.292-11.628-25.919-25.92-25.919s-25.92 11.627-25.92 25.919c0 6.491 2.399 12.432 6.356 16.984-7.958 5.966-13.116 15.473-13.116 26.161 0 18.02 14.66 32.68 32.68 32.68s32.681-14.66 32.681-32.68c0-10.688-5.159-20.195-13.117-26.161zm-30.031-16.984c0-5.771 4.695-10.466 10.467-10.466s10.467 4.695 10.467 10.466-4.695 10.466-10.467 10.466-10.467-4.695-10.467-10.466zm10.467 60.372c-9.499 0-17.227-7.728-17.227-17.227s7.728-17.227 17.227-17.227c9.5 0 17.228 7.728 17.228 17.227s-7.728 17.227-17.228 17.227z"></path><path d="m388.833 319.065c-2.333-7.512-7.464-13.754-14.448-17.575-12.521-6.851-28.125-4.097-37.106 6.547-2.752 3.261-2.338 8.136.923 10.887 3.263 2.753 8.136 2.34 10.888-.922 4.26-5.051 11.779-6.293 17.878-2.956 3.446 1.885 5.97 4.94 7.107 8.601 1.108 3.57.756 7.295-.992 10.49-3.658 6.682-12.349 8.988-19.377 5.143-3.742-2.047-8.439-.674-10.486 3.069-2.048 3.743-.674 8.439 3.069 10.487 3.446 1.885 5.97 4.94 7.107 8.601 1.108 3.57.756 7.295-.992 10.49-3.657 6.682-12.352 8.988-19.376 5.143-6.34-3.469-9.31-10.931-6.908-17.358.22-.59.487-1.174.795-1.735 2.046-3.744.671-8.439-3.073-10.486-3.747-2.047-8.44-.67-10.486 3.073-.659 1.206-1.235 2.465-1.711 3.741-5.071 13.574.933 29.189 13.967 36.321 4.651 2.545 9.672 3.754 14.604 3.753 10.445 0 20.484-5.419 25.745-15.035 3.776-6.899 4.554-14.887 2.194-22.49-.111-.359-.229-.715-.354-1.068 7.795-1.836 14.755-6.77 18.839-14.233 3.774-6.898 4.553-14.885 2.193-22.488z"></path></g></g></svg>
