<svg version="1.1" id="Capa_1" xmlns="http://www.w3.org/2000/svg" xmlns:xlink="http://www.w3.org/1999/xlink" x="0px" y="0px" viewBox="0 0 512 512" style="enable-background:new 0 0 512 512;" xml:space="preserve">
                        <g>
                        <path style="fill:#FFF2A0;stroke:#000000;stroke-width:20;stroke-linecap:round;stroke-linejoin:round;stroke-miterlimit:10;" d="&#10;&#9;&#9;M270.142,195H221c-11.046,0-20,8.954-20,20v20.858c0,9.055,3.597,17.739,10,24.142l0,0h90l0,0c6.403-6.403,10-15.087,10-24.142v0&#10;&#9;&#9;C311,213.293,292.707,195,270.142,195z"/>
                        <path style="fill:#B6BCCF;stroke:#000000;stroke-width:20;stroke-linecap:round;stroke-linejoin:round;stroke-miterlimit:10;" d="&#10;&#9;&#9;M447,330h-50c-30.376,0-55,24.624-55,55v45h160v-45C502,354.624,477.376,330,447,330z"/>
                        
                        <circle style="fill:#FFDCD5;stroke:#000000;stroke-width:20;stroke-linecap:round;stroke-linejoin:round;stroke-miterlimit:10;" cx="422" cy="280" r="50"/>
                        <path style="fill:#FFF2A0;stroke:#000000;stroke-width:20;stroke-linecap:round;stroke-linejoin:round;stroke-miterlimit:10;" d="&#10;&#9;&#9;M65,330h50c30.376,0,55,24.624,55,55v45H10v-45C10,354.624,34.624,330,65,330z"/>
                        
                        <circle style="fill:#CC9081;stroke:#000000;stroke-width:20;stroke-linecap:round;stroke-linejoin:round;stroke-miterlimit:10;" cx="90" cy="280" r="50"/>
                        <path style="fill:#A0C8FF;stroke:#000000;stroke-width:20;stroke-linecap:round;stroke-linejoin:round;stroke-miterlimit:10;" d="&#10;&#9;&#9;M301,345h-90c-33.137,0-60,26.863-60,60v62h210v-62C361,371.863,334.137,345,301,345z"/>
                        
                        <polygon style="fill:#FFBECB;stroke:#000000;stroke-width:20;stroke-linecap:round;stroke-linejoin:round;stroke-miterlimit:10;" points="&#10;&#9;&#9;281,345 231,345 241,385 271,385 &#9;"/>
                        
                        <polygon style="fill:#FF9EB1;stroke:#000000;stroke-width:20;stroke-linecap:round;stroke-linejoin:round;stroke-miterlimit:10;" points="&#10;&#9;&#9;286,467 226,467 241,385 271,385 &#9;"/>
                        <path style="fill:#FFDCD5;stroke:#000000;stroke-width:20;stroke-linecap:round;stroke-linejoin:round;stroke-miterlimit:10;" d="&#10;&#9;&#9;M256,345L256,345c-24.853,0-45-20.147-45-45v-40l25-20l0,0c12.806,12.806,30.174,20,48.284,20H301v40&#10;&#9;&#9;C301,324.853,280.853,345,256,345z"/>
                        
                        <line style="fill:none;stroke:#000000;stroke-width:20;stroke-linecap:round;stroke-linejoin:round;stroke-miterlimit:10;" x1="341" y1="145" x2="321" y2="145"/>
                        
                        <line style="fill:none;stroke:#000000;stroke-width:20;stroke-linecap:round;stroke-linejoin:round;stroke-miterlimit:10;" x1="171" y1="145" x2="191" y2="145"/>
                        
                        <polyline style="fill:#FFF2A0;stroke:#000000;stroke-width:20;stroke-linecap:round;stroke-linejoin:round;stroke-miterlimit:10;" points="&#10;&#9;&#9;301,145 321,145 341,55 286,85 256,45 226,85 171,55 191,145 211,145 &#9;"/>
                        <g>
            			<rect x="256" y="145" style="fill:none;stroke:#000000;stroke-width:20;stroke-linecap:round;stroke-linejoin:round;stroke-miterlimit:10;" width="0" height="0"/>
            	        </g></g><g></g><g></g><g></g><g></g><g></g><g></g><g></g><g></g><g></g><g></g><g></g><g></g><g></g><g></g><g></g>
                    </svg>
                    