<svg enable-background="new 0 0 74 74" viewBox="0 0 74 74" xmlns="http://www.w3.org/2000/svg" id="fi_11380856"><g id="Colour_Glyphs" display="none"><g display="inline"><g><g><g><path d="m33.7 51.2c-3.1 0-5.9-1.5-7.6-4.2l-8.2-12.8h-10.9c-3.3 0-6 2.7-6 6v22c0 3.3 2.7 6 6 6h22c3.3 0 6-2.7 6-6v-11.1c-.4 0-.9.1-1.3.1zm-10.2 7.9h-10.8v-2.5l4.5-4.6c.9-.9 1.6-1.7 1.9-2.2.4-.5.6-1.1.6-1.6s-.2-.9-.5-1.3c-.3-.3-.8-.5-1.3-.5-1 0-1.9.7-2.7 2.1l-2.7-1.6c.7-1.1 1.5-2 2.4-2.5.9-.6 2-.9 3.3-.9s2.5.4 3.5 1.3c1 .8 1.5 2 1.5 3.4 0 .8-.2 1.5-.6 2.3-.4.7-1.1 1.7-2.2 2.8l-2.9 2.7h6z"></path><path d="m67 34.2h-6.7c-.7 1.4-1.8 2.7-3.2 3.7l-18.1 11.6v12.8c0 3.3 2.7 6 6 6h22c3.3 0 6-2.7 6-6v-22c0-3.4-2.7-6.1-6-6.1zm-7.2 23.4c-1.1.9-2.5 1.4-4.2 1.4s-3.4-.6-5.1-1.8l1.4-2.7c1.5 1 2.8 1.5 3.9 1.5.7 0 1.3-.2 1.7-.5s.7-.8.7-1.5c0-.6-.3-1.1-.8-1.5s-1.2-.6-2.1-.6c-.5 0-1.2.1-2 .4v-2.5l2.9-3.5h-4.8v-2.9h9.4v2.4l-3.1 3.6c1.2.2 2.2.7 2.8 1.5.7.8 1 1.8 1 2.9 0 1.6-.6 2.9-1.7 3.8z"></path></g><path d="m57.3 27.1-11.9-18.6c-1.1-1.7-3-2.8-5-2.8-1.2 0-2.3.3-3.2 1l-18.6 11.9c-2.8 1.8-3.6 5.5-1.8 8.3l11.9 18.5c1.1 1.7 3 2.8 5 2.8 1.2 0 2.3-.3 3.2-1l18.5-11.9c2.8-1.7 3.6-5.5 1.9-8.2zm-16.3 6.4-6.7-10.4-2.5 1.6-1.6-2.5 5.2-3.4 8.3 12.9z"></path></g></g></g></g><g id="Glyphs"><g><g><g><g><path d="m33.7 51.2c-3.1 0-5.9-1.5-7.6-4.2l-8.2-12.8h-10.9c-3.3 0-6 2.7-6 6v22c0 3.3 2.7 6 6 6h22c3.3 0 6-2.7 6-6v-11.1c-.4 0-.9.1-1.3.1zm-10.2 7.9h-10.8v-2.5l4.5-4.6c.9-.9 1.6-1.7 1.9-2.2.4-.5.6-1.1.6-1.6s-.2-.9-.5-1.3c-.3-.3-.8-.5-1.3-.5-1 0-1.9.7-2.7 2.1l-2.7-1.6c.7-1.1 1.5-2 2.4-2.5.9-.6 2-.9 3.3-.9s2.5.4 3.5 1.3c1 .8 1.5 2 1.5 3.4 0 .8-.2 1.5-.6 2.3-.4.7-1.1 1.7-2.2 2.8l-2.9 2.7h6z" fill="#e2575a"></path><path d="m67 34.2h-6.7c-.7 1.4-1.8 2.7-3.2 3.7l-18.1 11.6v12.8c0 3.3 2.7 6 6 6h22c3.3 0 6-2.7 6-6v-22c0-3.4-2.7-6.1-6-6.1zm-7.2 23.4c-1.1.9-2.5 1.4-4.2 1.4s-3.4-.6-5.1-1.8l1.4-2.7c1.5 1 2.8 1.5 3.9 1.5.7 0 1.3-.2 1.7-.5s.7-.8.7-1.5c0-.6-.3-1.1-.8-1.5s-1.2-.6-2.1-.6c-.5 0-1.2.1-2 .4v-2.5l2.9-3.5h-4.8v-2.9h9.4v2.4l-3.1 3.6c1.2.2 2.2.7 2.8 1.5.7.8 1 1.8 1 2.9 0 1.6-.6 2.9-1.7 3.8z" fill="#93ca27"></path></g><path d="m57.3 27.1-11.9-18.6c-1.1-1.7-3-2.8-5-2.8-1.2 0-2.3.3-3.2 1l-18.6 11.9c-2.8 1.8-3.6 5.5-1.8 8.3l11.9 18.5c1.1 1.7 3 2.8 5 2.8 1.2 0 2.3-.3 3.2-1l18.5-11.9c2.8-1.7 3.6-5.5 1.9-8.2zm-16.3 6.4-6.7-10.4-2.5 1.6-1.6-2.5 5.2-3.4 8.3 12.9z" fill="#4b8ffa"></path></g></g></g></g><g id="Blue_line" display="none"><g display="inline"><path d="m33 47.6v13.1c0 2.2-1.8 4-4 4h-22c-2.2 0-4-1.8-4-4v-22c0-2.2 1.8-4 4-4h16.2l7.1 11.1c.6 1 1.6 1.6 2.7 1.8z" style="fill:none;stroke:#51a9c4;stroke-width:3;stroke-linecap:round;stroke-linejoin:round;stroke-miterlimit:10"></path><path d="m71 38.7v22c0 2.2-1.8 4-4 4h-22c-2.2 0-4-1.8-4-4v-17l13.4-8.6c.2-.1.4-.3.5-.4h12.1c2.2 0 4 1.8 4 4z" style="fill:none;stroke:#51a9c4;stroke-width:3;stroke-linecap:round;stroke-linejoin:round;stroke-miterlimit:10"></path><g><path d="m55.6 29.6-11.9-18.5c-1.2-1.9-3.7-2.4-5.5-1.2l-18.6 11.9c-1.9 1.2-2.4 3.7-1.2 5.5l11.9 18.5c1.2 1.9 3.7 2.4 5.5 1.2l18.5-11.9c1.9-1.1 2.5-3.6 1.3-5.5z" style="fill:none;stroke:#51a9c4;stroke-width:3;stroke-linecap:round;stroke-linejoin:round;stroke-miterlimit:10"></path><path d="m30.3 23.7 5.2-3.4 8.3 12.9-2.8 1.8-6.7-10.4-2.5 1.6z" fill="#51a9c4"></path></g><g fill="#51a9c4"><path d="m19.2 48.2c.4-.5.6-1.1.6-1.6s-.2-.9-.5-1.3c-.3-.3-.8-.5-1.3-.5-1 0-1.9.7-2.7 2.1l-2.7-1.6c.7-1.1 1.5-2 2.4-2.5.9-.6 1.9-.9 3.3-.9s2.5.4 3.5 1.3c1 .8 1.5 2 1.5 3.4 0 .8-.2 1.5-.6 2.3-.4.7-1.1 1.6-2.2 2.8l-2.8 2.9h6.1v3.1h-11.1v-2.7l4.5-4.6c.9-.9 1.6-1.6 2-2.2z"></path><path d="m51.4 44.9v-2.9h9.4v2.4l-3.1 3.6c1.2.2 2.2.7 2.9 1.5s1 1.8 1 2.9c0 1.6-.5 2.9-1.6 3.8s-2.5 1.4-4.2 1.4-3.4-.6-5.2-1.8l1.4-2.7c1.4 1 2.7 1.5 3.9 1.5.7 0 1.3-.2 1.7-.5s.7-.8.7-1.5c0-.6-.3-1.1-.8-1.5s-1.2-.6-2.1-.6c-.5 0-1.2.1-2 .4v-2.5l2.9-3.5z"></path></g></g></g><g id="Line" display="none"><g display="inline"><path d="m33 47.6v13.1c0 2.2-1.8 4-4 4h-22c-2.2 0-4-1.8-4-4v-22c0-2.2 1.8-4 4-4h16.2l7.1 11.1c.6 1 1.6 1.6 2.7 1.8z" style="fill:none;stroke:#000;stroke-width:4;stroke-linecap:round;stroke-linejoin:round;stroke-miterlimit:10"></path><path d="m71 38.7v22c0 2.2-1.8 4-4 4h-22c-2.2 0-4-1.8-4-4v-17l13.4-8.6c.2-.1.4-.3.5-.4h12.1c2.2 0 4 1.8 4 4z" style="fill:none;stroke:#000;stroke-width:4;stroke-linecap:round;stroke-linejoin:round;stroke-miterlimit:10"></path><g><path d="m55.6 29.6-11.9-18.5c-1.2-1.9-3.7-2.4-5.5-1.2l-18.6 11.9c-1.9 1.2-2.4 3.7-1.2 5.5l11.9 18.5c1.2 1.9 3.7 2.4 5.5 1.2l18.5-11.9c1.9-1.1 2.5-3.6 1.3-5.5z" style="fill:none;stroke:#000;stroke-width:4;stroke-linecap:round;stroke-linejoin:round;stroke-miterlimit:10"></path><path d="m30.3 23.7 5.2-3.4 8.3 12.9-2.8 1.8-6.7-10.4-2.5 1.6z"></path></g><path d="m19.2 48.2c.4-.5.6-1.1.6-1.6s-.2-.9-.5-1.3c-.3-.3-.8-.5-1.3-.5-1 0-1.9.7-2.7 2.1l-2.7-1.6c.7-1.1 1.5-2 2.4-2.5.9-.6 1.9-.9 3.3-.9s2.5.4 3.5 1.3c1 .8 1.5 2 1.5 3.4 0 .8-.2 1.5-.6 2.3-.4.7-1.1 1.6-2.2 2.8l-2.8 2.9h6.1v3.1h-11.1v-2.7l4.5-4.6c.9-.9 1.6-1.6 2-2.2z"></path><path d="m51.4 44.9v-2.9h9.4v2.4l-3.1 3.6c1.2.2 2.2.7 2.9 1.5s1 1.8 1 2.9c0 1.6-.5 2.9-1.6 3.8s-2.5 1.4-4.2 1.4-3.4-.6-5.2-1.8l1.4-2.7c1.4 1 2.7 1.5 3.9 1.5.7 0 1.3-.2 1.7-.5s.7-.8.7-1.5c0-.6-.3-1.1-.8-1.5s-1.2-.6-2.1-.6c-.5 0-1.2.1-2 .4v-2.5l2.9-3.5z"></path></g></g></svg>
