<svg id="fi_8997995" enable-background="new 0 0 70 70" height="512" viewBox="0 0 70 70" width="512" xmlns="http://www.w3.org/2000/svg"><g id="_x33_8"><g><g><g><path d="m47.5385208 12.1905861 3.0619812 46.4114342c.1958237 2.9681511-1.6837654 5.4113007-4.2016106 5.4113007h-38.1567506c-2.5177293 0-4.3974328-2.4431496-4.2016101-5.4113007l3.0619807-46.4114342c.1448717-2.1958675 1.9843578-3.9595413 4.1100836-3.9595413h32.2158432c2.1258221 0 3.9652119 1.7636738 4.1100826 3.9595413z" fill="#bf7d5a"></path><path d="m36.2327461 64.0133209h-27.9906053c-2.5177293 0-4.3974328-2.4431496-4.2016101-5.4113007l2.7172074-41.1855927c-.101345 10.3725358 2.8316107 35.1688157 29.475008 46.5968934z" fill="#aa6256"></path><path d="m43.0555382 15.2008705c.9918137 11.9801311 1.665432 24.9251289 1.9808083 38.9565773.0564957 2.5135498-1.6216354 4.5313377-3.7796478 4.5313377h-27.9940387c-2.1809435 0-3.8640347-2.0592804-3.777648-4.5996246.475543-13.9841309 1.1455421-26.8887806 1.9883232-38.8344002.1395702-1.9782724 1.7697382-3.542901 3.6604023-3.542901h24.2680798c1.8707848.000001 3.4917679 1.5327663 3.6537209 3.4890108z" fill="#fff"></path><path d="m37.3915977 8.809309.1245613 3.7483959c.0345116 1.0386057-.7553101 1.8857365-1.7643318 1.8857365h-16.8645801c-1.0090199 0-1.7988377-.8471308-1.7643166-1.8857365l.1243362-3.7409544c.0336552-1.0126104.8603973-1.825356 1.8435574-1.825356h2.1342545c.6692963 0 1.2401085-.4645047 1.4350395-1.1129093.4950562-1.6467195 2.0088806-2.8784852 3.8377113-2.8784852h1.6434898c1.8007736 0 3.3365955 1.2111254 3.8376827 2.878294.19491.6484842.7657299 1.1131005 1.4350986 1.1131005h2.1340179c.9847643 0 1.8100283.8112045 1.8434793 1.8179145z" fill="#423d9b"></path><g fill="#fff"><path d="m28.4140854 6.3606997c.0022411.6158094-.4882832 1.1073446-1.0909367 1.1073446-.6098289 0-1.1005306-.4915352-1.0982857-1.1073446.0022087-.6059151.492897-1.0992465 1.0982666-1.0992465.5982457 0 1.0887528.4933314 1.0909558 1.0992465z"></path><path d="m8.2025652 25.7057304c.6554308-3.5235138.9044838-8.7167644.6865988-11.4918584-.5508538 2.7827196-.9204536 7.9744176-.6865988 11.4918584z"></path><path d="m29.5635872 12.8781328c1.8232632.4313078 4.688736.4089804 6.3123627-.0000334-1.6387024-.4069357-4.4844056-.4337616-6.3123627.0000334z"></path></g></g></g><g><g><g><g><path d="m23.7926655 25.8317928.0534935-5.4314823c.0000496-.0039692.000061-.0078888.000061-.0078888.012289-1.3671722-5.2563877-1.6504612-7.6382504-.8886261-.6832228.2188873-1.135252.5280628-1.1496906.9194889l-.20545 5.4403935c-.0688896 1.8663139 8.9231071 1.8340015 8.9398365-.0318852z" fill="#78e75a"></path></g><g><path d="m14.8527985 25.8636875c-.0688581 1.8662834 8.923151 1.8340263 8.939888-.0318851l.0534954-5.4314384c-.0020924.2336406-.163889 6.6609306-8.9933834 5.4633235z" fill="#72d561"></path></g></g><g><path d="m18.1085072 24.7476959-.867218-1.5305595c-.1531181-.2704105-.067688-.6293011.1911392-.8019352.2569351-.1718826.591114-.0933151.7457733.1765995l.5203991.9115887 2.0245457-2.1026363c.2162743-.2246742.5590305-.2246742.7664604 0 .2077236.2249966.2012234.5901718-.0150738.8160095l-2.5196877 2.6302776c-.2553501.266613-.6677551.21669-.8463382-.0993443z" fill="#fff"></path></g></g><g fill="#cccff2"><path d="m38.7120171 21.0779629c.0174713.4836769-.3280029.8655071-.7846222.8655071h-9.7278347c-.4468956 0-.8160839-.3818302-.8161812-.8655071-.0000935-.4719429.3669395-.8506775.811409-.8506775h9.6750393c.4541397 0 .8251419.3787346.8421898.8506775z"></path><path d="m35.5369377 25.1672535c.0127678.4963131-.3410988.8881321-.8036537.8881321h-6.5222931c-.4527073 0-.8266983-.391819-.8267956-.8881321-.0000973-.4842529.3716812-.8728523.8218994-.8728523h6.4864368c.4600144 0 .8319512.3885994.8444062.8728523z"></path></g></g><g><g><g><g><path d="m23.6632404 37.5749435.0576973-5.8336887c.0000534-.004261.0000648-.0084667.0000648-.0084667.0132942-1.467268-5.4441223-1.7712402-7.9123678-.9537373-.7080803.2349072-1.176815.5667305-1.1923428.9868641l-.2209091 5.8432961c-.0741986 2.0062065 9.2497283 1.971466 9.2678576-.0342675z" fill="#b28afd"></path></g><g><path d="m14.3953505 37.6092224c-.0741644 2.006176 9.249774 1.9714928 9.267911-.0342674l.0576992-5.833643c-.0022641.2507935-.1726724 7.1551876-9.3256102 5.8679104z" fill="#986ff9"></path></g></g><g><path d="m17.7717342 36.4099884-.897089-1.6442261c-.1583595-.290432-.0693932-.675869.1990337-.8612595.2664528-.1845779.6126633-.1002083.7726383.1896477l.5383587.9790802 2.099905-2.2579956c.2242661-.2412109.5794086-.2412109.7941761 0 .215086.2415695.2081051.633667-.0161839.8761749l-2.6136589 2.8253212c-.2659758.2875748-.6931284.2315064-.87718-.1067428z" fill="#fff"></path></g></g><g fill="#cccff2"><path d="m39.1235046 32.4686928c.0187569.5192795-.3387184.9292564-.8118744.9292564h-10.0802268c-.4630852 0-.8456497-.409977-.8457527-.9292564-.0001011-.506628.3801498-.9131565.8406296-.9131565h10.0235443c.4705009 0 .8553771.4065284.87368.9131565z"></path><path d="m35.8377228 36.8608055c.0137215.5333443-.3527527.9544449-.8322906.9544449h-6.7617493c-.4693279 0-.8570499-.4211006-.8571568-.9544449-.0001049-.5203285.3852444-.9378357.8518963-.9378357h6.723217c.4768066 0 .8627014.4175072.8760834.9378357z"></path></g></g><g><g><g><g><path d="m23.5239563 50.2125435.0623951-6.28228c.0000572-.0045853.0000706-.0091133.0000706-.0091133.0144176-1.5787735-5.6457634-1.905777-8.206892-1.0262756-.7348156.2527504-1.2215357.6098061-1.2382793 1.0619278l-.2381611 6.2926712c-.0801326 2.1624412 9.6011695 2.1249847 9.6208667-.0369301z" fill="#fa5f7f"></path></g><g><path d="m13.9030561 50.249485c-.0800972 2.1624069 9.6012163 2.1250114 9.620923-.0369263l.0623951-6.2822342c-.0024547.2699051-.1823424 7.7065697-9.6833181 6.3191605z" fill="#f34b58"></path></g></g></g></g></g><g><g><g><g><g><g><g><g><path d="m37.0592918 43.0937271c-2.1047859 0-2.1047859 16.4131622 0 16.4131622l14.2657967 7.3559189v-31.1235428z" fill="#febc1f"></path><path d="m37.0557442 43.0937347c-1.3891411 5.4720154-1.3891411 10.9429855 0 16.4132576l-4.4567108-.9989967c-2.6461964-.5852203-4.5853996-3.639534-4.5853996-7.2076302 0-1.78405.4820538-3.4396973 1.2962894-4.724247.8142338-1.2843781 1.9713745-2.1837196 3.2891102-2.4833832z" fill="#57b3fe"></path><path d="m37.0557442 59.5069923-1.0606232-.2426949c-1.3070107-5.309288-1.3070107-10.6185799 0-15.9280434l1.0606232-.2425194c-1.3928032 5.4662668-1.3928032 10.9468194 0 16.4132577z" fill="#497bfe"></path><path d="m58.3037758 51.3003654c0 8.6775513-2.7544747 15.6996346-6.1657715 15.6996346-3.3966637 0-6.1511383-7.0220833-6.1511383-15.6996346 0-8.6777306 2.7544746-15.6996384 6.1511383-15.6996384 3.4112968.0000001 6.1657715 7.0219079 6.1657715 15.6996384z" fill="#ffde9b"></path><path d="m56.5625839 51.3003654c0 7.0504799-1.9697685 12.7594337-4.4245796 12.7594337-2.0694275 0-3.7963333-4.0818825-4.2674332-9.6195793-.1900826-1.9054756-.1921158-4.3538666 0-6.2797127.4710999-5.5378723 2.1980057-9.6195831 4.2674332-9.6195831 2.4548111.0000001 4.4245796 5.7089616 4.4245796 12.7594414z" fill="#febc1f"></path><g><path d="m53.5506058 51.2989044c0-2.4701538-3.0796013-4.2533379-5.4482727-5.1267509-.4821892 3.2220192-.5128632 6.8262672-.0004883 10.2535019 2.3692589-.8723374 5.448761-2.6673508 5.448761-5.126751z" fill="#fff"></path></g></g></g><g fill="#febc1f"><g><path d="m62.8582535 60.0456161-2.9746971-2.9740181c-.3319321-.3318558-.3319855-.8829117-.0001221-1.2147713.3380585-.338047.8829155-.3317795 1.2148476.0000763l2.9747009 2.9740181c.3381195.338047.3381729.8765678.0001221 1.2146187-.3318673.3318558-.8767243.3381234-1.2148514.0000763z"></path><path d="m62.857914 42.5565567-2.9745598 2.9740295c-.3319168.3318596-.3319473.8829155-.0000687 1.2147713.3380737.338047.8829308.3317795 1.2148476-.0000763l2.9745598-2.9740334c.3381119-.338047.3381424-.8765678.0000687-1.2146149-.3318825-.3318595-.8767396-.3381232-1.2148476-.0000762z"></path></g><path d="m65.114502 52.1598816-4.2064705.0003777c-.4693794.000042-.8590889-.3896103-.8590927-.8589592 0-.4781113.3897057-.8589668.8590889-.8590088l4.2064743-.0003738c.4781342-.0000458.8589783.3807411.8589783.8588524-.0000001.4693488-.3808442.8590697-.8589783.8591117z"></path></g></g></g></g><path d="m29.5356808 48.2707939c1.1461124-1.3942451 2.3204308-2.5544586 3.9365978-3.3892021-1.8226242.1765213-3.3961163 1.6822243-3.9365978 3.3892021z" fill="#fff"></path></g><g><path d="m50.6822128 47.4108086c.8086929 1.7702065 2.0517502 5.991806-2.580368 9.0148468 5.6318664-2.073597 7.561821-5.9068909 2.580368-9.0148468z" fill="#f3f1fc"></path></g></g></g></g></svg>
