<svg viewBox="0 0 512 512" xmlns="http://www.w3.org/2000/svg"><g id="Marketing_billboard" data-name="Marketing billboard"><path d="m115.52 213.61h37.47v267.39h-37.47z" fill="#2351fb"/><path d="m359.01 213.61h37.47v267.39h-37.47z" fill="#2351fb"/><path d="m93.5 90.83a2 2 0 0 1 -2-2v-43.37a16.46 16.46 0 1 1 32.91 0v3.29a2 2 0 0 1 -4 0v-3.29a12.46 12.46 0 1 0 -24.91 0v43.37a2 2 0 0 1 -2 2z" fill="#2351fb"/><rect fill="#e87700" height="14.46" rx="4.5" width="29.17" x="107.95" y="42.16"/><path d="m163.84 90.83a2 2 0 0 1 -2-2v-43.37a16.46 16.46 0 1 1 32.91 0v3.29a2 2 0 0 1 -4 0v-3.29a12.46 12.46 0 1 0 -24.91 0v43.37a2 2 0 0 1 -2 2z" fill="#2351fb"/><rect fill="#e87700" height="14.46" rx="4.5" width="29.17" x="178.3" y="42.16"/><path d="m234.19 90.83a2 2 0 0 1 -2-2v-43.37a16.46 16.46 0 1 1 32.91 0v3.29a2 2 0 0 1 -4 0v-3.29a12.46 12.46 0 1 0 -24.91 0v43.37a2 2 0 0 1 -2 2z" fill="#2351fb"/><rect fill="#e87700" height="14.46" rx="4.5" width="29.17" x="248.64" y="42.16"/><path d="m304.53 90.83a2 2 0 0 1 -2-2v-43.37a16.46 16.46 0 1 1 32.91 0v3.29a2 2 0 0 1 -4 0v-3.29a12.46 12.46 0 1 0 -24.91 0v43.37a2 2 0 0 1 -2 2z" fill="#2351fb"/><rect fill="#e87700" height="14.46" rx="4.5" width="29.17" x="318.99" y="42.16"/><path d="m374.88 90.83a2 2 0 0 1 -2-2v-43.37a16.46 16.46 0 1 1 32.91 0v3.29a2 2 0 0 1 -4 0v-3.29a12.46 12.46 0 1 0 -24.91 0v43.37a2 2 0 0 1 -2 2z" fill="#2351fb"/><rect fill="#e87700" height="14.46" rx="4.5" width="29.17" x="389.33" y="42.16"/><path d="m66.47 64.65h379.07v230.69h-379.07z" fill="#fdc500"/><path d="m197.43 195.51-13.22-1.64a7.9 7.9 0 0 1 -6.71-6 73.27 73.27 0 0 1 0-35.29 7.89 7.89 0 0 1 6.69-5.92l13.24-1.66a7.91 7.91 0 0 1 8.87 7.85v34.79a7.9 7.9 0 0 1 -8.87 7.87z" fill="#68003c"/><path d="m210.14 243-10.2-47.59c-1.26-5.88 2.13-11.75 7.93-13 7.93-1.7 8-1.79 9.43-1.79a10.75 10.75 0 0 1 10.25 8l12.15 42.09a11.16 11.16 0 0 1 -3.72 12l-9.27 7.07c-5.95 4.5-14.83 1.31-16.57-6.78z" fill="#2351fb"/><path d="m236.53 235.77-8.13 6.23c-.85.64-2.13-.62-2.5-2.45l-10.9-53.64c-.28-1.34.11-2.56.87-2.72l6-1.29c.74-.16 1.56.68 1.9 1.95l13.19 49a2.85 2.85 0 0 1 -.43 2.92z" fill="#e87700"/><rect fill="#68003c" height="11.86" rx="2.71" width="35.01" x="203.55" y="194.39"/><path d="m309.19 221.8a240.58 240.58 0 0 0 -104.47-24.54v-56.26a224.59 224.59 0 0 0 104.47-24.55z" fill="#2351fb"/><ellipse cx="309.19" cy="169.13" fill="#e87700" rx="38.28" ry="52.67"/><ellipse cx="204.72" cy="169.13" fill="#2351fb" rx="16.01" ry="28.13"/><path d="m217 202.34h-8a2.93 2.93 0 0 1 -2.84-2.46 157.44 157.44 0 0 1 0-57.06 2.93 2.93 0 0 1 2.84-2.46h8a3 3 0 0 1 2.84 3.61 149.39 149.39 0 0 0 0 54.77 3 3 0 0 1 -2.84 3.6z" fill="#68003c"/><rect fill="#68003c" height="15.91" rx="1.69" transform="matrix(.984 -.18 .18 .984 -33.76 43.81)" width="7.14" x="221.03" y="200.06"/><path d="m302 182.59-29 5.91a87.53 87.53 0 0 1 .25-39.11l28.75 6.27z" fill="#68003c"/><ellipse cx="301.69" cy="169.18" fill="#2351fb" rx="4.51" ry="13.48"/><path d="m414 133.37-28.56 5.43 15.54 24.58-26.31-12.41-1.86 29.03-13.99-25.51-18.57 22.4 3.68-28.85-28.19 7.19 19.92-21.19-27.02-10.74 28.56-5.44-15.54-24.58 26.31 12.41 1.86-29.03 13.99 25.51 18.57-22.4-3.68 28.86 28.18-7.2-19.91 21.19z" fill="#fff"/><g fill="#e87700"><ellipse cx="328.07" cy="268.53" rx="10.48" ry="10.78"/><ellipse cx="374.88" cy="268.53" rx="10.48" ry="10.78"/><ellipse cx="421.68" cy="268.53" rx="10.48" ry="10.78"/><path d="m137.13 106.08c17.67-6.09 31.35 13.53 55.62 8.12s25.63-37.2 39.15-35.2 24.86 16.91 45.91 9.81c9.19-3.1 13.08-13.47 14.54-24.18h-225.88v108.64c61.74 8.43 47.7-59.27 70.66-67.19z"/></g><rect fill="#fff" height="3.03" rx="1.49" width="78.8" x="80.52" y="247.01"/><rect fill="#fff" height="3.03" rx="1.49" width="100.03" x="80.52" y="259.27"/><rect fill="#fff" height="3.03" rx="1.49" width="107.46" x="80.52" y="271.53"/></g></svg>