<svg id="fi_3425938" height="512" viewBox="0 0 340 340" width="512" xmlns="http://www.w3.org/2000/svg"><circle cx="170" cy="170" fill="#965757" r="160"></circle><path d="m304.532 170a134.114 134.114 0 0 1 -10.211 51.5l-29.2 43.631a134.731 134.731 0 0 1 -43.633 29.193l-51.488 10.208a134.114 134.114 0 0 1 -51.5-10.211l-43.631-29.2a134.731 134.731 0 0 1 -29.193-43.633l29.2-146.624a134.731 134.731 0 0 1 43.633-29.193l51.491-10.203a134.114 134.114 0 0 1 51.5 10.211l43.626 29.193a134.742 134.742 0 0 1 28.832 42.762z" fill="#f4677f"></path><path d="m45.68 118.5a134.114 134.114 0 0 0 -10.212 51.5l61.444 3.4 8.217-35.511-59.443-19.389z" fill="#8ab56f"></path><path d="m83.24 150.893a14.823 14.823 0 0 0 14.823 14.824c.215 0 .423-.023.635-.032l6.431-27.792-5.179-1.693a14.726 14.726 0 0 0 -16.71 14.689z" fill="#5c7c48"></path><path d="m304.532 170.006v-.006a134.1 134.1 0 0 0 -10.214-51.488l-89.993 37.272a37.221 37.221 0 0 0 -8.056-12.051l68.864-68.857a134.727 134.727 0 0 0 -43.633-29.19l-37.28 89.99a37.031 37.031 0 0 0 -14.22-2.824v-97.384a134.1 134.1 0 0 0 -51.488 10.214l37.272 89.993a37.221 37.221 0 0 0 -12.051 8.056l-68.857-68.864a134.727 134.727 0 0 0 -29.19 43.633l89.99 37.28a37.031 37.031 0 0 0 -2.824 14.22h-97.384a134.1 134.1 0 0 0 10.214 51.488l89.993-37.272a37.206 37.206 0 0 0 8.056 12.05l-68.864 68.858a134.727 134.727 0 0 0 43.634 29.19l37.28-89.99a37.031 37.031 0 0 0 14.219 2.824v97.384a134.1 134.1 0 0 0 51.488-10.214l-37.272-89.993a37.221 37.221 0 0 0 12.051-8.056l68.857 68.864a134.727 134.727 0 0 0 29.19-43.634l-89.99-37.28a37.031 37.031 0 0 0 2.824-14.219z" fill="#3c3c4f"></path><path d="m246.987 170a76.987 76.987 0 0 1 -153.974 0q0-2.58.167-5.117l7.167-27.719a77 77 0 0 1 146.64 32.836z" fill="#ffc661"></path><path d="m98.063 165.717a14.818 14.818 0 0 0 2.693-29.39 76.525 76.525 0 0 0 -7.556 28.557 14.769 14.769 0 0 0 4.863.833z" fill="#e57c35"></path><path d="m170 309.532c-76.938 0-139.532-62.594-139.532-139.532s62.594-139.532 139.532-139.532 139.532 62.594 139.532 139.532-62.594 139.532-139.532 139.532zm0-269.064a129.532 129.532 0 1 0 129.532 129.532 129.678 129.678 0 0 0 -129.532-129.532z" fill="#ffc661"></path><circle cx="94.375" cy="137.893" fill="#fff" r="13"></circle><g fill="#3c3c4f"><path d="m151.944 197.083 19.806-19.806-9.027-9.027-19.806 19.806a9.665 9.665 0 0 1 -7.425 2.925 13.317 13.317 0 0 0 -10.406 3.829c-5.322 5.322-5.136 14.136.416 19.688s14.366 5.738 19.688.416a13.317 13.317 0 0 0 3.829-10.406 9.665 9.665 0 0 1 2.925-7.425z"></path><path d="m197.083 151.944-19.806 19.806-9.027-9.027 19.806-19.806a9.665 9.665 0 0 0 2.925-7.425 13.317 13.317 0 0 1 3.829-10.406c5.322-5.322 14.136-5.136 19.688.416s5.738 14.366.416 19.688a13.317 13.317 0 0 1 -10.406 3.829 9.665 9.665 0 0 0 -7.425 2.925z"></path><circle cx="170" cy="170" r="20.423"></circle></g></svg>
