<svg height="512" viewBox="0 0 61.99 64" width="512" xmlns="http://www.w3.org/2000/svg" id="fi_9728368"><g id="Layer_2" data-name="Layer 2"><g id="Layer_1-2" data-name="Layer 1"><path d="m36.51 19.21a17.11 17.11 0 0 1 21.33 23.68l3.16 8.76-8-2.87a17.1 17.1 0 0 1 -27.55-13.57c0-.37 0-.74 0-1.1" fill="#36ffb6"></path><path d="m36.54 18.1a17.11 17.11 0 0 1 -27.54 13.57l-8 2.87 3.14-8.76a17.11 17.11 0 1 1 32.4-7.68z" fill="#ff7886"></path><path d="m8.6 43.41a9.12 9.12 0 0 0 5.26 15.49l1.93 4.1 2.12-4.49a9.12 9.12 0 1 0 -9.31-15.1z" fill="#fff"></path><path d="m61.93 51.31-3-8.36a18 18 0 0 0 1.74-7.74 18.11 18.11 0 0 0 -23.14-17.39 18.1 18.1 0 0 0 -36.2.28 17.88 17.88 0 0 0 1.73 7.74l-3 8.37a1 1 0 0 0 .23 1 1 1 0 0 0 1.05.23l7.51-2.69a17.9 17.9 0 0 0 10.59 3.42 18.13 18.13 0 0 0 5-.72 18.12 18.12 0 0 0 18.11 17.87 17.89 17.89 0 0 0 10.58-3.42l7.52 2.69a1 1 0 0 0 1-.24 1 1 0 0 0 .28-1.04zm-52.31-20.43a1 1 0 0 0 -.94-.15l-6 2.16 2.42-6.77a1 1 0 0 0 0-.79 15.83 15.83 0 0 1 -1.77-7.23 16.09 16.09 0 1 1 6.29 12.78zm43.68 17a1 1 0 0 0 -.95.15 15.91 15.91 0 0 1 -9.8 3.34 16.12 16.12 0 0 1 -16.1-16.11c0-.14 0-.28 0-.42a18.16 18.16 0 0 0 11-14.84 16.09 16.09 0 0 1 19.49 22.44 1 1 0 0 0 0 .78l2.39 6.78z"></path><path d="m42.55 28a4.55 4.55 0 0 0 -4.55 4.52 1 1 0 1 0 2 0 2.55 2.55 0 1 1 2.55 2.56 1 1 0 0 0 -1 1v1.66a1 1 0 0 0 2 0v-.74a4.55 4.55 0 0 0 -1-9z"></path><path d="m19.44 10.88a4.55 4.55 0 0 0 -4.55 4.54 1 1 0 0 0 2 0 2.55 2.55 0 1 1 2.55 2.58 1 1 0 0 0 -1 1v1.66a1 1 0 0 0 2 0v-.77a4.55 4.55 0 0 0 -1-9z"></path><path d="m18.73 23.63a1 1 0 0 0 -.29.7 1 1 0 1 0 2 0 1 1 0 0 0 -.29-.7 1 1 0 0 0 -1.42 0z"></path><path d="m15 39.75a10.11 10.11 0 0 0 -1.86 20l1.71 3.63a1 1 0 0 0 .9.57 1 1 0 0 0 .91-.57l1.94-4.11a10.12 10.12 0 0 0 -3.6-19.52zm5.78 15.85a8 8 0 0 1 -3.18 2 1 1 0 0 0 -.59.53l-1.22 2.57-1-2.19a1 1 0 0 0 -.77-.56 8.11 8.11 0 1 1 6.79-2.31z"></path><path d="m43.26 40.73a1 1 0 0 0 -1.42 0 .89.89 0 0 0 -.21.33 1 1 0 0 0 -.08.38 1 1 0 0 0 1.71.71 1 1 0 0 0 .29-.71.84.84 0 0 0 -.08-.38 1.42 1.42 0 0 0 -.21-.33z"></path><path d="m17.42 47.21h-4.76a1 1 0 0 0 0 2h4.76a1 1 0 0 0 0-2z"></path><path d="m15 51.31h-2.34a1 1 0 1 0 0 2h2.34a1 1 0 0 0 0-2z"></path></g></g></svg>
