 <svg id="fi_9986175" enable-background="new 0 0 512.007 512.007" height="512" viewBox="0 0 512.007 512.007" width="512" xmlns="http://www.w3.org/2000/svg"><g><g><path d="m341.288 395.581-193.185 51.764c-26.673 7.147-54.09-8.682-61.237-35.355l-77.646-289.778c-7.147-26.673 8.682-54.09 35.355-61.237l193.185-51.764c26.673-7.147 54.09 8.682 61.237 35.355l77.646 289.778c7.147 26.673-8.682 54.09-35.355 61.237z" fill="#dce1eb"></path></g><g><path d="m193.117 383.519-77.645-289.777c-7.147-26.673 8.682-54.09 35.355-61.237l-106.252 28.469c-26.673 7.148-42.502 34.564-35.355 61.238l77.646 289.778c7.147 26.673 34.564 42.502 61.237 35.355l106.252-28.47c-26.674 7.147-54.091-8.682-61.238-35.356z" fill="#cdd2e1"></path></g><g><path d="m154.574 137.741-47.51 101.698c-3.658 7.829-1.159 17.155 5.923 22.106l91.994 64.318c9.055 6.331 21.631 2.961 26.307-7.049l47.51-101.698c3.658-7.829 1.159-17.155-5.923-22.106l-91.994-64.318c-9.055-6.331-21.63-2.961-26.307 7.049z" fill="#ff8870"></path></g><g><path d="m363.905 502.778-193.185-51.764c-26.673-7.147-42.502-34.564-35.355-61.237l77.645-289.777c7.147-26.673 34.564-42.502 61.237-35.355l193.185 51.764c26.673 7.147 42.502 34.564 35.355 61.237l-77.646 289.778c-7.146 26.672-34.563 42.501-61.236 35.354z" fill="#f2f6fc"></path></g><g><path d="m241.616 418.247 77.646-289.778c7.147-26.673 34.564-42.502 61.237-35.355l-106.252-28.47c-26.673-7.147-54.09 8.682-61.237 35.355l-77.646 289.778c-7.147 26.673 8.682 54.09 35.355 61.237l106.252 28.47c-26.673-7.146-42.502-34.563-35.355-61.237z" fill="#e9edf5"></path></g><g><path d="m404.933 240.658c-33.757-27.3-74.069-.941-74.069-.941s-21.732-42.984-64.616-36.22c-42.885 6.763-58.042 63.333-34.084 110.173 14.761 28.859 33.766 50.194 46.182 62.32 7.88 7.697 19.191 10.728 29.865 8.002 16.816-4.294 43.942-13.268 71.155-30.88 44.167-28.585 59.325-85.154 25.567-112.454z" fill="#ff9b87"></path></g><g><path d="m308.21 383.993c-14.639-34.898-11.061-121.707 22.654-144.275 0 0-21.732-42.984-64.616-36.22-42.885 6.763-58.042 63.333-34.084 110.173 14.761 28.859 33.766 50.194 46.182 62.32 7.88 7.696 19.191 10.727 29.864 8.002z" fill="#ff8870"></path></g><g><path d="m57.139 96.132-6.39 53.425c-.491 4.112 2.443 7.846 6.557 8.338.303.036.603.054.9.054 3.744 0 6.981-2.8 7.438-6.61l.989-8.266 19.208-5.147 4.99 6.664c2.483 3.316 7.182 3.989 10.499 1.509 3.315-2.482 3.991-7.183 1.509-10.499l-32.249-43.072c-1.838-2.454-4.984-3.545-7.945-2.749-2.961.793-5.141 3.309-5.506 6.353zm19.018 28.86-7.605 2.038 1.258-10.517z"></path><path d="m469.374 109.163-156.543-41.945-6.589-24.594c-8.206-30.625-39.796-48.865-70.423-40.658l-154.228 41.325c-4.001 1.071-6.375 5.185-5.303 9.186 1.071 4.001 5.184 6.378 9.186 5.303l154.228-41.325c22.637-6.062 45.986 7.417 52.052 30.053l4.348 16.228-19.914-5.336c-30.631-8.211-62.218 10.033-70.423 40.658l-9.226 34.431-11.36-7.943c-6.138-4.291-13.806-5.64-21.034-3.702-7.232 1.938-13.197 6.939-16.366 13.723l-47.51 101.697c-5.212 11.155-1.671 24.373 8.42 31.428l43.478 30.398-24.047 89.747c-3.976 14.836-1.936 30.331 5.744 43.632 2.024 3.506 4.383 6.74 7.021 9.687-9.302 1.282-18.711-.53-26.973-5.301-9.831-5.677-16.863-14.841-19.802-25.807l-77.646-289.778c-6.064-22.636 7.417-45.985 30.052-52.052l9.98-2.674c4.002-1.071 6.376-5.184 5.304-9.185-1.071-4.002-5.188-6.381-9.185-5.304l-9.981 2.674c-30.625 8.207-48.865 39.799-40.659 70.424l77.646 289.778c6.875 25.66 30.166 42.624 55.554 42.624 4.911 0 9.903-.636 14.868-1.966l5.764-1.545c4.047 2.23 8.392 3.988 12.97 5.215l193.186 51.764c4.954 1.327 9.98 1.984 14.975 1.984 9.964 0 19.798-2.613 28.657-7.729 13.301-7.68 22.815-20.079 26.79-34.914l77.646-289.778c8.207-30.625-10.033-62.217-40.657-70.423zm-352.09 146.236c-4.104-2.87-5.545-8.247-3.425-12.785l47.51-101.697c1.289-2.76 3.716-4.795 6.658-5.583 2.942-.789 6.061-.239 8.558 1.506l15.825 11.063-36.112 134.772zm378.26-79.696-77.646 289.778c-2.938 10.966-9.971 20.13-19.802 25.807-9.83 5.675-21.284 7.184-32.249 4.246l-193.186-51.764c-10.966-2.938-20.131-9.971-25.807-19.803-5.677-9.831-7.185-21.284-4.246-32.249l77.646-289.778c6.067-22.637 29.425-36.111 52.052-30.053l193.186 51.764c22.635 6.066 36.116 29.417 30.052 52.052z"></path><path d="m409.649 234.826c-15.643-12.649-35.02-16.868-56.037-12.197-8.296 1.844-15.292 4.737-20.063 7.069-2.967-4.405-7.578-10.409-13.841-16.153-15.866-14.554-34.756-20.592-54.628-17.455-18.61 2.935-33.861 14.381-42.945 32.229-12.937 25.42-11.652 59.434 3.352 88.768 15.004 29.333 34.177 51.142 47.618 64.271 7.355 7.185 17.295 11.102 27.397 11.101 3.196 0 6.411-.392 9.563-1.197 11.795-3.012 30.025-8.669 49.897-18.519 3.711-1.84 5.229-6.339 3.389-10.051-1.84-3.71-6.339-5.229-10.051-3.389-18.699 9.269-35.851 14.592-46.946 17.425-8.08 2.063-16.804-.274-22.769-6.101-12.641-12.347-30.665-32.844-44.745-60.37-12.659-24.751-13.97-54.243-3.338-75.134 4.843-9.515 14.311-21.439 31.913-24.216 36.854-5.812 55.968 30.657 56.755 32.195.96 1.898 2.688 3.295 4.742 3.851s4.254.208 6.04-.947c1.468-.948 36.26-22.97 65.265.485 13.519 10.933 15.932 25.558 15.574 35.901-.788 22.842-15.165 46.759-37.521 62.418-3.393 2.376-4.217 7.053-1.84 10.445 2.376 3.392 7.052 4.217 10.445 1.84 26.135-18.307 42.959-46.732 43.906-74.186.673-19.444-6.833-36.519-21.132-48.083z"></path><path d="m260.887 259.392-2.735 10.209c-1.072 4.001 1.302 8.114 5.303 9.186.65.175 1.304.258 1.946.258 3.312 0 6.342-2.21 7.239-5.561l2.735-10.209c1.072-4.001-1.302-8.114-5.303-9.186-4.001-1.074-8.113 1.302-9.185 5.303z"></path><path d="m369.707 307.256c.65.175 1.304.258 1.946.258 3.312 0 6.342-2.21 7.239-5.561l2.735-10.208c1.072-4.001-1.302-8.113-5.303-9.186-4.001-1.076-8.114 1.302-9.186 5.303l-2.735 10.208c-1.071 4.002 1.303 8.114 5.304 9.186z"></path><path d="m328.424 283.002c-2.821 1.897-6.316 2.483-9.589 1.607-3.273-.877-6.007-3.132-7.501-6.186-1.821-3.722-6.313-5.261-10.033-3.441-3.721 1.82-5.262 6.312-3.441 10.033 3.4 6.95 9.631 12.083 17.093 14.082 2.276.61 4.598.91 6.909.91 5.265 0 10.472-1.558 14.934-4.559 3.438-2.312 4.35-6.973 2.038-10.409-2.313-3.436-6.974-4.347-10.41-2.037z"></path><path d="m236.812 154.945c3.317 2.484 8.018 1.807 10.499-1.509l4.989-6.664 19.208 5.147.989 8.265c.456 3.811 3.693 6.61 7.438 6.61.298 0 .598-.018.9-.054 4.113-.492 7.048-4.226 6.557-8.338l-6.391-53.424c-.364-3.044-2.545-5.561-5.506-6.354-2.963-.795-6.107.295-7.945 2.749l-32.246 43.071c-2.483 3.318-1.807 8.018 1.508 10.501zm31.52-29.586 1.258 10.517-7.606-2.038z"></path><path d="m401.34 412.478c-3.316-2.484-8.018-1.807-10.499 1.509l-4.989 6.664-19.208-5.147-.989-8.265c-.492-4.114-4.233-7.048-8.338-6.557-4.113.492-7.048 4.226-6.557 8.338l6.391 53.424c.364 3.044 2.545 5.561 5.506 6.354.644.173 1.296.256 1.941.256 2.325 0 4.565-1.084 6.004-3.005l32.246-43.071c2.483-3.318 1.807-8.018-1.508-10.5zm-31.52 29.586-1.258-10.517 7.606 2.038z"></path></g></g></svg>
