<svg id="fi_7189616" enable-background="new 0 0 512 512" height="512" viewBox="0 0 512 512" width="512" xmlns="http://www.w3.org/2000/svg"><g><path d="m445.567 486.605c-.01 0-.018 0-.028 0l-379.11-.088c-23.677-.001-45.732-12.742-57.558-33.249-11.831-20.508-11.826-45.98.014-66.475l189.591-328.176c11.839-20.492 33.896-33.223 57.564-33.223 23.671 0 45.726 12.735 57.559 33.236l189.527 328.262c11.835 20.514 11.831 45.986-.01 66.481-11.823 20.497-33.876 33.231-57.549 33.232z" fill="#194e57"></path><path d="m445.538 486.605h.028c23.673-.001 45.726-12.735 57.55-33.231 11.841-20.495 11.846-45.967.01-66.481l-189.527-328.262c-11.833-20.501-33.888-33.236-57.559-33.236v461.167z" fill="#003540"></path><path d="m66.435 456.517c-12.993-.001-25.091-6.989-31.578-18.236-6.495-11.259-6.493-25.236.003-36.481l189.593-328.175c6.496-11.245 18.6-18.23 31.587-18.23 12.985 0 25.085 6.986 31.577 18.233l189.529 328.266c6.491 11.25 6.49 25.229-.006 36.473-6.493 11.256-18.588 18.238-31.574 18.239z" fill="#ffe66f"></path><path d="m287.617 73.628c-6.492-11.247-18.591-18.233-31.576-18.233v401.167l189.525.044c12.986 0 25.081-6.983 31.574-18.239 6.497-11.244 6.497-25.223.006-36.473z" fill="#ffc800"></path><ellipse cx="256" cy="383.212" fill="#ff6d3c" rx="47.133" ry="47.133" transform="matrix(.924 -.383 .383 .924 -127.162 127.138)"></ellipse><path d="m256 317.878c-5.912 0-11.272-3.472-13.689-8.868-1.366-3.048-33.444-75.245-33.444-126.632 0-45.056 24.498-63.2 47.133-63.2 22.638 0 47.134 18.148 47.134 63.2 0 51.387-32.079 123.584-33.444 126.633-2.418 5.395-7.778 8.867-13.69 8.867z" fill="#ff6d3c"></path><g fill="#ff0020"><path d="m256.04 119.18v198.697c5.896-.016 11.238-3.483 13.649-8.866 1.365-3.048 33.444-75.246 33.444-126.633.001-45.025-24.466-63.177-47.093-63.198z"></path><path d="m256 336.079c25.989 0 47.134 21.144 47.134 47.133s-21.145 47.133-47.134 47.133z"></path></g></g></svg>
